<svg xmlns="http://www.w3.org/2000/svg" viewBox="0 0 128 128" role="img" aria-labelledby="title desc">
  <title id="title">MMH calligraphic M logo</title>
  <desc id="desc">A calligraphic M with thicker vertical rhythm and softer entry strokes.</desc>
  <rect width="128" height="128" rx="32" fill="#F7F3EC"/>
  <path
    d="M24 93c4.8 4.2 12.4 4.3 16.4-.6 4.6-5.8 4.8-18.1 5.8-31.3 1-13.8 3.8-27.8 10.7-36.7 2.6-3.4 8.2-2.2 8.8 2.1 1.7 11.4-.9 24.2 1.2 38.8 1.6 11 5.6 19.8 11.4 19.3 7.6-.7 11.7-12.1 15-23.2 3.5-11.8 6.8-24.7 13.6-33.9"
    fill="none"
    stroke="#25323B"
    stroke-linecap="round"
    stroke-linejoin="round"
    stroke-width="12"
  />
  <path
    d="M25 92c9.5 1.4 18.3-2.3 22.2-10.3"
    fill="none"
    stroke="#BE6E4A"
    stroke-linecap="round"
    stroke-width="4"
  />
</svg>
