<svg xmlns="http://www.w3.org/2000/svg" viewBox="0 0 128 128" role="img" aria-labelledby="title desc">
  <title id="title">MMH signature M logo</title>
  <desc id="desc">A flowing signature-style M monogram.</desc>
  <rect width="128" height="128" rx="32" fill="#1F3E46"/>
  <path
    d="M18 86.5c8.5 10.5 22.2 13.4 30.6 6.1 8.2-7.1 4.9-21.7 4.8-34.8-.1-9.6 1.6-18.8 4.3-27 1.4-4.3 7.6-4.4 9.3-.3 4.5 10.9 1.8 26.2 3.3 39.4 1.1 10.1 4.1 18.2 9.4 17.5 7.7-1 11.8-12.3 15.2-22.5 3.3-9.9 6.6-20.8 12.7-28.6 2.9-3.7 8.7-1.3 8.4 3.4-.8 11.1-4.4 22.6-5.1 34-.6 9.2 1 17.2 5.1 22.1"
    fill="none"
    stroke="#F8F4EA"
    stroke-linecap="round"
    stroke-linejoin="round"
    stroke-width="10"
  />
  <path
    d="M17 93c14.1 5.7 30.4 4.6 45-.3"
    fill="none"
    stroke="#8FD0C9"
    stroke-linecap="round"
    stroke-width="4"
  />
</svg>
