<svg xmlns="http://www.w3.org/2000/svg" viewBox="0 0 128 128" role="img" aria-labelledby="title desc">
  <title id="title">MMH script M logo</title>
  <desc id="desc">A semi-cursive M monogram with a graceful handwritten rhythm.</desc>
  <rect width="128" height="128" rx="32" fill="#F6F1E8"/>
  <path
    d="M20 88c7.5 8.4 18.5 9.5 24.2 1.6 4.1-5.6 2.7-15.1 2.5-24.5-.3-13.6 1.8-26.6 8.3-36.4 2.6-4 9-5.7 11.6.3 6.3 14.5-.7 35 1.8 51.2 1 6.4 4.5 9.5 9.1 7.5 7.6-3.2 12.3-19.2 15.9-30.8 2.6-8.2 4.9-15.7 9.6-20.6 4.8-4.8 12-3.8 12 4.9 0 13.4-5.1 30.2-4.2 45.6.2 4 1.8 7.8 4.2 10.5"
    fill="none"
    stroke="#24313A"
    stroke-linecap="round"
    stroke-linejoin="round"
    stroke-width="11"
  />
  <path
    d="M22 86.5c6.4 5.2 13.6 5.3 17.7-.5"
    fill="none"
    stroke="#C78663"
    stroke-linecap="round"
    stroke-width="4"
  />
</svg>
